<svg width="107" height="107" viewBox="0 0 107 107" fill="none" xmlns="http://www.w3.org/2000/svg">
<path d="M98.839 53.5425C98.839 59.5067 97.6642 65.4126 95.3818 70.9228C93.0994 76.4331 89.754 81.4398 85.5366 85.6572C81.3193 89.8745 76.3125 93.2199 70.8023 95.5023C65.292 97.7848 59.3862 98.9595 53.4219 98.9595C47.4577 98.9595 41.5518 97.7848 36.0416 95.5023C30.5313 93.2199 25.5246 89.8745 21.3072 85.6572C17.0899 81.4398 13.7445 76.4331 11.462 70.9228C9.17963 65.4126 8.00488 59.5067 8.00488 53.5425C8.00488 47.5782 9.17963 41.6724 11.4621 36.1621C13.7445 30.6519 17.0899 25.6451 21.3072 21.4278C25.5246 17.2104 30.5313 13.865 36.0416 11.5826C41.5518 9.30017 47.4577 8.12543 53.4219 8.12543C59.3862 8.12543 65.292 9.30018 70.8023 11.5826C76.3125 13.865 81.3193 17.2104 85.5366 21.4278C89.754 25.6451 93.0994 30.6519 95.3818 36.1621C97.6642 41.6724 98.839 47.5782 98.839 53.5425L98.839 53.5425Z" stroke="#D9D9D9" stroke-width="15.139"/>
<path d="M98.839 53.5425C98.839 59.5067 97.6642 65.4126 95.3818 70.9228C93.0994 76.4331 89.754 81.4398 85.5366 85.6572C81.3193 89.8745 76.3125 93.2199 70.8023 95.5023C65.292 97.7848 59.3862 98.9595 53.4219 98.9595C47.4577 98.9595 41.5518 97.7848 36.0416 95.5023C30.5313 93.2199 25.5246 89.8745 21.3072 85.6572C17.0899 81.4398 13.7445 76.4331 11.462 70.9228C9.17963 65.4126 8.00488 59.5067 8.00488 53.5425C8.00488 47.5782 9.17963 41.6724 11.4621 36.1621C13.7445 30.6519 17.0899 25.6451 21.3072 21.4278C25.5246 17.2104 30.5313 13.865 36.0416 11.5826C41.5518 9.30017 47.4577 8.12543 53.4219 8.12543C59.3862 8.12543 65.292 9.30018 70.8023 11.5826C76.3125 13.865 81.3193 17.2104 85.5366 21.4278C89.754 25.6451 93.0994 30.6519 95.3818 36.1621C97.6642 41.6724 98.839 47.5782 98.839 53.5425L98.839 53.5425Z" stroke="url(#paint0_angular_65_3960)" stroke-width="15.139" stroke-linecap="round"/>
<defs>
<radialGradient id="paint0_angular_65_3960" cx="0" cy="0" r="1" gradientUnits="userSpaceOnUse" gradientTransform="translate(53.4219 53.5425) rotate(90) scale(45.417)">
<stop stop-color="white"/>
<stop offset="1" stop-color="#004CFF"/>
</radialGradient>
</defs>
</svg>
