<svg width="177" height="60" viewBox="0 0 177 60" fill="none" xmlns="http://www.w3.org/2000/svg">
<mask id="path-1-outside-1_65_814" maskUnits="userSpaceOnUse" x="-1.5" y="-1" width="180" height="62" fill="black">
<rect fill="white" x="-1.5" y="-1" width="180" height="62"/>
<path d="M48.553 0.363635V60H40.2831L9.9699 16.2628H9.41663V60H0.41876V0.363635H8.74689L39.0892 44.1591H39.6425V0.363635H48.553ZM58.3985 60V0.363635H95.7877V8.10938H67.3964V26.2798H93.8367V33.9964H67.3964V52.2543H96.1372V60H58.3985ZM116.204 60L99.6638 0.363635H109.128L120.746 46.5469H121.299L133.384 0.363635H142.76L154.845 46.576H155.398L166.988 0.363635H176.481L159.912 60H150.856L138.305 15.331H137.839L125.289 60H116.204Z"/>
</mask>
<path d="M48.553 0.363634H49.553V-0.636366H48.553V0.363634ZM48.553 60V61H49.553V60H48.553ZM40.2831 60L39.4612 60.5696L39.7595 61H40.2831V60ZM9.96989 16.2628L10.7918 15.6931L10.4935 15.2628H9.96989V16.2628ZM9.41663 16.2628V15.2628H8.41663V16.2628H9.41663ZM9.41663 60V61H10.4166V60H9.41663ZM0.418762 60H-0.581238V61H0.418762V60ZM0.418762 0.363634V-0.636366H-0.581238V0.363634H0.418762ZM8.74689 0.363634L9.56888 -0.205859L9.27061 -0.636366H8.74689V0.363634ZM39.0892 44.1591L38.2672 44.7286L38.5655 45.1591H39.0892V44.1591ZM39.6425 44.1591V45.1591H40.6425V44.1591H39.6425ZM39.6425 0.363634V-0.636366H38.6425V0.363634H39.6425ZM47.553 0.363634V60H49.553V0.363634H47.553ZM48.553 59H40.2831V61H48.553V59ZM41.105 59.4304L10.7918 15.6931L9.148 16.8324L39.4612 60.5696L41.105 59.4304ZM9.96989 15.2628H9.41663V17.2628H9.96989V15.2628ZM8.41663 16.2628V60H10.4166V16.2628H8.41663ZM9.41663 59H0.418762V61H9.41663V59ZM1.41876 60V0.363634H-0.581238V60H1.41876ZM0.418762 1.36363H8.74689V-0.636366H0.418762V1.36363ZM7.92489 0.933128L38.2672 44.7286L39.9112 43.5896L9.56888 -0.205859L7.92489 0.933128ZM39.0892 45.1591H39.6425V43.1591H39.0892V45.1591ZM40.6425 44.1591V0.363634H38.6425V44.1591H40.6425ZM39.6425 1.36363H48.553V-0.636366H39.6425V1.36363ZM58.3985 60H57.3985V61H58.3985V60ZM58.3985 0.363634V-0.636366H57.3985V0.363634H58.3985ZM95.7877 0.363634H96.7877V-0.636366H95.7877V0.363634ZM95.7877 8.10938V9.10938H96.7877V8.10938H95.7877ZM67.3964 8.10938V7.10938H66.3964V8.10938H67.3964ZM67.3964 26.2798H66.3964V27.2798H67.3964V26.2798ZM93.8367 26.2798H94.8367V25.2798H93.8367V26.2798ZM93.8367 33.9964V34.9964H94.8367V33.9964H93.8367ZM67.3964 33.9964V32.9964H66.3964V33.9964H67.3964ZM67.3964 52.2543H66.3964V53.2543H67.3964V52.2543ZM96.1372 52.2543H97.1372V51.2543H96.1372V52.2543ZM96.1372 60V61H97.1372V60H96.1372ZM59.3985 60V0.363634H57.3985V60H59.3985ZM58.3985 1.36363H95.7877V-0.636366H58.3985V1.36363ZM94.7877 0.363634V8.10938H96.7877V0.363634H94.7877ZM95.7877 7.10938H67.3964V9.10938H95.7877V7.10938ZM66.3964 8.10938V26.2798H68.3964V8.10938H66.3964ZM67.3964 27.2798H93.8367V25.2798H67.3964V27.2798ZM92.8367 26.2798V33.9964H94.8367V26.2798H92.8367ZM93.8367 32.9964H67.3964V34.9964H93.8367V32.9964ZM66.3964 33.9964V52.2543H68.3964V33.9964H66.3964ZM67.3964 53.2543H96.1372V51.2543H67.3964V53.2543ZM95.1372 52.2543V60H97.1372V52.2543H95.1372ZM96.1372 59H58.3985V61H96.1372V59ZM116.204 60L115.24 60.2673L115.443 61H116.204V60ZM99.6638 0.363634V-0.636366H98.3487L98.7002 0.63089L99.6638 0.363634ZM109.128 0.363634L110.097 0.11966L109.907 -0.636366H109.128V0.363634ZM120.746 46.5469L119.776 46.7908L119.967 47.5469H120.746V46.5469ZM121.299 46.5469V47.5469H122.071L122.267 46.8L121.299 46.5469ZM133.384 0.363634V-0.636366H132.612L132.417 0.110493L133.384 0.363634ZM142.76 0.363634L143.728 0.110642L143.533 -0.636366H142.76V0.363634ZM154.845 46.576L153.877 46.829L154.073 47.576H154.845V46.576ZM155.398 46.576V47.576H156.178L156.368 46.8192L155.398 46.576ZM166.988 0.363634V-0.636366H166.207L166.018 0.12038L166.988 0.363634ZM176.481 0.363634L177.444 0.631327L177.796 -0.636366H176.481V0.363634ZM159.912 60V61H160.672L160.875 60.2677L159.912 60ZM150.856 60L149.893 60.2705L150.098 61H150.856V60ZM138.305 15.331L139.268 15.0605L139.063 14.331H138.305V15.331ZM137.839 15.331V14.331H137.081L136.877 15.0605L137.839 15.331ZM125.289 60V61H126.047L126.252 60.2705L125.289 60ZM117.167 59.7327L100.627 0.0963793L98.7002 0.63089L115.24 60.2673L117.167 59.7327ZM99.6638 1.36363H109.128V-0.636366H99.6638V1.36363ZM108.158 0.607609L119.776 46.7908L121.716 46.3029L110.097 0.11966L108.158 0.607609ZM120.746 47.5469H121.299V45.5469H120.746V47.5469ZM122.267 46.8L134.351 0.616776L132.417 0.110493L120.332 46.2937L122.267 46.8ZM133.384 1.36363H142.76V-0.636366H133.384V1.36363ZM141.793 0.616627L153.877 46.829L155.812 46.323L143.728 0.110642L141.793 0.616627ZM154.845 47.576H155.398V45.576H154.845V47.576ZM156.368 46.8192L167.958 0.606889L166.018 0.12038L154.428 46.3327L156.368 46.8192ZM166.988 1.36363H176.481V-0.636366H166.988V1.36363ZM175.517 0.0959425L158.948 59.7323L160.875 60.2677L177.444 0.631327L175.517 0.0959425ZM159.912 59H150.856V61H159.912V59ZM151.818 59.7295L139.268 15.0605L137.342 15.6015L149.893 60.2705L151.818 59.7295ZM138.305 14.331H137.839V16.331H138.305V14.331ZM136.877 15.0605L124.326 59.7295L126.252 60.2705L138.802 15.6015L136.877 15.0605ZM125.289 59H116.204V61H125.289V59Z" fill="black" mask="url(#path-1-outside-1_65_814)"/>
</svg>
