<svg width="359" height="96" viewBox="0 0 359 96" fill="none" xmlns="http://www.w3.org/2000/svg">
<mask id="path-1-outside-1_65_717" maskUnits="userSpaceOnUse" x="-2" y="-0.883636" width="362" height="98" fill="black">
<rect fill="white" x="-2" y="-0.883636" width="362" height="98"/>
<path d="M54.0677 26.0162C53.5866 21.7468 51.6022 18.4395 48.1145 16.0943C44.6268 13.7191 40.2372 12.5315 34.9455 12.5315C31.1571 12.5315 27.8799 13.1328 25.1138 14.3355C22.3477 15.508 20.198 17.1316 18.6646 19.2062C17.1613 21.2507 16.4096 23.5808 16.4096 26.1966C16.4096 28.3915 16.9208 30.2856 17.943 31.8791C18.9953 33.4727 20.3634 34.8106 22.0471 35.893C23.7608 36.9453 25.5949 37.8323 27.5492 38.5539C29.5035 39.2454 31.3826 39.8166 33.1866 40.2676L42.2065 42.6128C45.153 43.3344 48.1747 44.3116 51.2715 45.5443C54.3683 46.777 57.2397 48.4006 59.8855 50.415C62.5313 52.4295 64.666 54.925 66.2896 57.9015C67.9433 60.8781 68.7701 64.4409 68.7701 68.5901C68.7701 73.8216 67.4171 78.4669 64.7111 82.5258C62.0352 86.5848 58.1416 89.7868 53.0304 92.132C47.9492 94.4772 41.8006 95.6497 34.5847 95.6497C27.6695 95.6497 21.6863 94.5523 16.6351 92.3575C11.584 90.1626 7.63028 87.0508 4.77398 83.0219C1.91768 78.963 0.339201 74.1523 0.0385386 68.5901H14.0194C14.29 71.9274 15.3723 74.7086 17.2665 76.9335C19.1908 79.1283 21.6412 80.7669 24.6177 81.8493C27.6244 82.9016 30.9166 83.4278 34.4945 83.4278C38.4332 83.4278 41.9359 82.8114 45.0027 81.5787C48.0995 80.3159 50.5349 78.5721 52.3088 76.3472C54.0827 74.0922 54.9696 71.4614 54.9696 68.4548C54.9696 65.7188 54.1879 63.4788 52.6245 61.735C51.0911 59.9911 49.0015 58.5479 46.3557 57.4054C43.7399 56.2629 40.7784 55.2557 37.4711 54.3838L26.557 51.4072C19.1607 49.3928 13.2978 46.4312 8.96823 42.5226C4.66875 38.614 2.51901 33.4426 2.51901 27.0084C2.51901 21.6867 3.96219 17.0414 6.84855 13.0727C9.73492 9.10393 13.6435 6.02214 18.5744 3.8273C23.5053 1.60239 29.0675 0.48994 35.2612 0.48994C41.515 0.48994 47.0321 1.58736 51.8127 3.7822C56.6233 5.97704 60.4116 8.9987 63.1777 12.8472C65.9438 16.6656 67.387 21.0553 67.5073 26.0162H54.0677ZM85.4961 94.1164H70.7035L103.942 1.75272H120.042L153.281 94.1164H138.488L112.375 18.5297H111.654L85.4961 94.1164ZM87.9766 57.9466H135.962V69.6725H87.9766V57.9466ZM159.634 94.1164V1.75272H173.569V82.1199H215.422V94.1164H159.634ZM224.334 94.1164V1.75272H282.242V13.7492H238.27V41.8912H279.22V53.8426H238.27V82.1199H282.783V94.1164H224.334ZM344.248 26.0162C343.767 21.7468 341.782 18.4395 338.295 16.0943C334.807 13.7191 330.417 12.5315 325.126 12.5315C321.337 12.5315 318.06 13.1328 315.294 14.3355C312.528 15.508 310.378 17.1316 308.845 19.2062C307.341 21.2507 306.59 23.5808 306.59 26.1966C306.59 28.3915 307.101 30.2856 308.123 31.8791C309.175 33.4727 310.543 34.8106 312.227 35.893C313.941 36.9453 315.775 37.8323 317.729 38.5539C319.684 39.2454 321.563 39.8166 323.367 40.2676L332.387 42.6128C335.333 43.3344 338.355 44.3116 341.452 45.5443C344.548 46.777 347.42 48.4006 350.066 50.415C352.711 52.4295 354.846 54.925 356.47 57.9015C358.123 60.8781 358.95 64.4409 358.95 68.5901C358.95 73.8216 357.597 78.4669 354.891 82.5258C352.215 86.5848 348.322 89.7868 343.21 92.132C338.129 94.4772 331.981 95.6497 324.765 95.6497C317.85 95.6497 311.866 94.5523 306.815 92.3575C301.764 90.1626 297.81 87.0508 294.954 83.0219C292.098 78.963 290.519 74.1523 290.219 68.5901H304.199C304.47 71.9274 305.552 74.7086 307.447 76.9335C309.371 79.1283 311.821 80.7669 314.798 81.8493C317.804 82.9016 321.097 83.4278 324.675 83.4278C328.613 83.4278 332.116 82.8114 335.183 81.5787C338.28 80.3159 340.715 78.5721 342.489 76.3472C344.263 74.0922 345.15 71.4614 345.15 68.4548C345.15 65.7188 344.368 63.4788 342.805 61.735C341.271 59.9911 339.182 58.5479 336.536 57.4054C333.92 56.2629 330.958 55.2557 327.651 54.3838L316.737 51.4072C309.341 49.3928 303.478 46.4312 299.148 42.5226C294.849 38.614 292.699 33.4426 292.699 27.0084C292.699 21.6867 294.142 17.0414 297.029 13.0727C299.915 9.10393 303.824 6.02214 308.755 3.8273C313.685 1.60239 319.248 0.48994 325.441 0.48994C331.695 0.48994 337.212 1.58736 341.993 3.7822C346.803 5.97704 350.592 8.9987 353.358 12.8472C356.124 16.6656 357.567 21.0553 357.687 26.0162H344.248Z"/>
</mask>
<path d="M54.0677 26.0162L53.0739 26.1282L53.174 27.0162H54.0677V26.0162ZM48.1145 16.0943L47.5516 16.9209L47.5565 16.9242L48.1145 16.0943ZM25.1138 14.3355L25.5041 15.2562L25.5125 15.2525L25.1138 14.3355ZM18.6646 19.2062L17.8604 18.6118L17.859 18.6138L18.6646 19.2062ZM17.943 31.8791L17.1012 32.4191L17.1085 32.4302L17.943 31.8791ZM22.0471 35.893L21.5063 36.7342L21.515 36.7398L21.5238 36.7452L22.0471 35.893ZM27.5492 38.5539L27.2028 39.492L27.2156 39.4966L27.5492 38.5539ZM33.1866 40.2676L33.4383 39.2998L33.4292 39.2975L33.1866 40.2676ZM42.2065 42.6128L41.9549 43.5806L41.9617 43.5824L41.9686 43.5841L42.2065 42.6128ZM59.8855 50.415L59.2797 51.2107L59.8855 50.415ZM66.2896 57.9015L65.4117 58.3804L65.4155 58.3872L66.2896 57.9015ZM64.7111 82.5258L63.8791 81.9711L63.8762 81.9754L64.7111 82.5258ZM53.0304 92.132L52.6133 91.2231L52.6113 91.224L53.0304 92.132ZM16.6351 92.3575L17.0337 91.4403L16.6351 92.3575ZM4.77398 83.0219L3.95617 83.5974L3.95819 83.6003L4.77398 83.0219ZM0.038538 68.5901V67.5901H-1.01698L-0.960003 68.6441L0.038538 68.5901ZM14.0194 68.5901L15.0161 68.5093L14.9416 67.5901H14.0194V68.5901ZM17.2665 76.9335L16.5051 77.5817L16.5098 77.5873L16.5146 77.5927L17.2665 76.9335ZM24.6177 81.8493L24.276 82.7892L24.2874 82.7932L24.6177 81.8493ZM45.0027 81.5787L45.3756 82.5066L45.3803 82.5047L45.0027 81.5787ZM52.3088 76.3472L53.0907 76.9706L53.0947 76.9655L52.3088 76.3472ZM52.6245 61.735L51.8735 62.3953L51.8799 62.4025L52.6245 61.735ZM46.3557 57.4054L45.9554 58.3218L45.9592 58.3235L46.3557 57.4054ZM37.4711 54.3838L37.2079 55.3486L37.2161 55.3507L37.4711 54.3838ZM26.557 51.4072L26.8201 50.4424L26.8198 50.4423L26.557 51.4072ZM8.96823 42.5226L8.29555 43.2626L8.29812 43.2649L8.96823 42.5226ZM6.84855 13.0727L6.03982 12.4845L6.84855 13.0727ZM18.5744 3.8273L18.9811 4.74089L18.9857 4.73881L18.5744 3.8273ZM51.8127 3.7822L51.3954 4.691L51.3976 4.69198L51.8127 3.7822ZM63.1777 12.8472L62.3657 13.4308L62.3679 13.4338L63.1777 12.8472ZM67.5073 26.0162V27.0162H68.5318L68.507 25.992L67.5073 26.0162ZM55.0614 25.9043C54.5483 21.3507 52.4099 17.7776 48.6725 15.2645L47.5565 16.9242C50.7945 19.1014 52.6249 22.1429 53.0739 26.1282L55.0614 25.9043ZM48.6774 15.2678C44.986 12.7538 40.3868 11.5315 34.9455 11.5315V13.5315C40.0875 13.5315 44.2677 14.6844 47.5516 16.9209L48.6774 15.2678ZM34.9455 11.5315C31.0539 11.5315 27.6348 12.149 24.7151 13.4184L25.5125 15.2525C28.125 14.1167 31.2604 13.5315 34.9455 13.5315V11.5315ZM24.7235 13.4148C21.8202 14.6455 19.5165 16.3712 17.8604 18.6118L19.4688 19.8006C20.8794 17.892 22.8752 16.3706 25.5041 15.2562L24.7235 13.4148ZM17.859 18.6138C16.2253 20.8356 15.4096 23.3747 15.4096 26.1966H17.4096C17.4096 23.787 18.0973 21.6658 19.4703 19.7986L17.859 18.6138ZM15.4096 26.1966C15.4096 28.5517 15.9601 30.6401 17.1013 32.4191L18.7847 31.3392C17.8814 29.9312 17.4096 28.2312 17.4096 26.1966H15.4096ZM17.1085 32.4302C18.2412 34.1454 19.7113 35.5803 21.5063 36.7342L22.5878 35.0518C21.0154 34.041 19.7495 32.7999 18.7775 31.3281L17.1085 32.4302ZM21.5238 36.7452C23.2955 37.8331 25.1891 38.7484 27.2028 39.492L27.8956 37.6158C26.0007 36.9161 24.2261 36.0575 22.5703 35.0408L21.5238 36.7452ZM27.2156 39.4966C29.1965 40.1975 31.1061 40.7783 32.9441 41.2378L33.4292 39.2975C31.6592 38.855 29.8105 38.2933 27.8828 37.6111L27.2156 39.4966ZM32.935 41.2355L41.9549 43.5806L42.4581 41.645L33.4383 39.2998L32.935 41.2355ZM41.9686 43.5841C44.8661 44.2937 47.8436 45.2561 50.9017 46.4734L51.6413 44.6152C48.5057 43.367 45.4399 42.3751 42.4444 41.6415L41.9686 43.5841ZM50.9017 46.4734C53.9144 47.6726 56.7063 49.2513 59.2797 51.2107L60.4913 49.6194C57.773 47.5498 54.8223 45.8814 51.6413 44.6152L50.9017 46.4734ZM59.2797 51.2107C61.8113 53.1381 63.8542 55.5249 65.4117 58.3804L67.1675 57.4227C65.4779 54.325 63.2513 51.7208 60.4913 49.6194L59.2797 51.2107ZM65.4155 58.3872C66.9703 61.186 67.7701 64.574 67.7701 68.5901H69.7701C69.7701 64.3079 68.9162 60.5702 67.1638 57.4159L65.4155 58.3872ZM67.7701 68.5901C67.7701 73.6392 66.4675 78.0885 63.8791 81.9711L65.5432 83.0805C68.3667 78.8452 69.7701 74.004 69.7701 68.5901H67.7701ZM63.8762 81.9754C61.3186 85.8549 57.5817 88.9435 52.6133 91.2231L53.4474 93.0409C58.7016 90.6301 62.7518 87.3146 65.546 83.0762L63.8762 81.9754ZM52.6113 91.224C47.6937 93.4937 41.6962 94.6497 34.5847 94.6497V96.6497C41.905 96.6497 48.2046 95.4606 53.4494 93.0399L52.6113 91.224ZM34.5847 94.6497C27.7727 94.6497 21.9313 93.5685 17.0337 91.4403L16.2366 93.2746C21.4412 95.5362 27.5662 96.6497 34.5847 96.6497V94.6497ZM17.0337 91.4403C12.1301 89.3096 8.32867 86.3068 5.58976 82.4436L3.95819 83.6003C6.93188 87.7947 11.0379 91.0157 16.2366 93.2746L17.0337 91.4403ZM5.59179 82.4464C2.85629 78.5591 1.32889 73.9346 1.03708 68.5361L-0.960003 68.6441C-0.650488 74.3701 0.979067 79.3668 3.95617 83.5974L5.59179 82.4464ZM0.038538 69.5901H14.0194V67.5901H0.038538V69.5901ZM13.0226 68.6709C13.3076 72.1857 14.4556 75.1744 16.5051 77.5817L18.028 76.2852C16.289 74.2427 15.2723 71.6692 15.0161 68.5093L13.0226 68.6709ZM16.5146 77.5927C18.5591 79.9247 21.1551 81.6542 24.276 82.7891L24.9595 80.9095C22.1273 79.8796 19.8225 78.3319 18.0185 76.2742L16.5146 77.5927ZM24.2874 82.7932C27.4124 83.8869 30.8178 84.4278 34.4945 84.4278V82.4278C31.0154 82.4278 27.8363 81.9163 24.9481 80.9055L24.2874 82.7932ZM34.4945 84.4278C38.537 84.4278 42.1699 83.7951 45.3756 82.5066L44.6297 80.6509C41.7019 81.8277 38.3294 82.4278 34.4945 82.4278V84.4278ZM45.3803 82.5047C48.6076 81.1887 51.1928 79.351 53.0907 76.9706L51.5269 75.7238C49.877 77.7932 47.5914 79.4432 44.6251 80.6527L45.3803 82.5047ZM53.0947 76.9655C55.0143 74.5254 55.9697 71.6741 55.9697 68.4548H53.9697C53.9697 71.2487 53.1511 73.6591 51.5228 75.7289L53.0947 76.9655ZM55.9697 68.4548C55.9697 65.5164 55.1241 63.025 53.369 61.0674L51.8799 62.4025C53.2517 63.9326 53.9697 65.9211 53.9697 68.4548H55.9697ZM53.3755 61.0746C51.7238 59.1963 49.5018 57.6747 46.7521 56.4874L45.9592 58.3235C48.5012 59.4212 50.4584 60.786 51.8735 62.3953L53.3755 61.0746ZM46.7559 56.489C44.0849 55.3224 41.0736 54.2993 37.726 53.4168L37.2161 55.3507C40.4832 56.212 43.3948 57.2034 45.9554 58.3218L46.7559 56.489ZM37.7342 53.419L26.8201 50.4424L26.2939 52.372L37.208 55.3485L37.7342 53.419ZM26.8198 50.4423C19.5291 48.4567 13.8207 45.5561 9.63833 41.7803L8.29812 43.2649C12.7748 47.3063 18.7923 50.3288 26.2942 52.3721L26.8198 50.4423ZM9.6409 41.7827C5.57357 38.0851 3.51901 33.1945 3.51901 27.0084H1.51901C1.51901 33.6907 3.76392 39.1429 8.29555 43.2626L9.6409 41.7827ZM3.51901 27.0084C3.51901 21.8792 4.90587 17.444 7.65729 13.6609L6.03982 12.4845C3.01851 16.6388 1.51901 21.4942 1.51901 27.0084H3.51901ZM7.65729 13.6609C10.4304 9.84783 14.194 6.8717 18.9811 4.74088L18.1678 2.91372C13.0931 5.17257 9.03944 8.36003 6.03982 12.4845L7.65729 13.6609ZM18.9857 4.73881C23.7698 2.58011 29.1889 1.48994 35.2612 1.48994V-0.51006C28.9462 -0.51006 23.2407 0.62468 18.1631 2.9158L18.9857 4.73881ZM35.2612 1.48994C41.3978 1.48994 46.7682 2.56652 51.3954 4.69099L52.2299 2.87341C47.2961 0.608196 41.6322 -0.51006 35.2612 -0.51006V1.48994ZM51.3976 4.69198C56.0685 6.82308 59.7127 9.7396 62.3657 13.4308L63.9898 12.2635C61.1106 8.25781 57.1781 5.131 52.2278 2.87242L51.3976 4.69198ZM62.3679 13.4338C65.0088 17.0795 66.392 21.2707 66.5076 26.0405L68.507 25.992C68.3821 20.8399 66.8789 16.2518 63.9876 12.2605L62.3679 13.4338ZM67.5073 25.0162H54.0677V27.0162H67.5073V25.0162ZM85.4961 94.1164V95.1164H86.2082L86.4411 94.4434L85.4961 94.1164ZM70.7035 94.1164L69.7626 93.7778L69.2808 95.1164H70.7035V94.1164ZM103.942 1.75272V0.752724H103.239L103.001 1.41412L103.942 1.75272ZM120.042 1.75272L120.983 1.41412L120.745 0.752724H120.042V1.75272ZM153.281 94.1164V95.1164H154.703L154.221 93.7778L153.281 94.1164ZM138.488 94.1164L137.543 94.4429L137.775 95.1164H138.488V94.1164ZM112.375 18.5297L113.321 18.2032L113.088 17.5297H112.375V18.5297ZM111.654 18.5297V17.5297H110.942L110.709 18.2027L111.654 18.5297ZM87.9766 57.9466V56.9466H86.9766V57.9466H87.9766ZM135.962 57.9466H136.962V56.9466H135.962V57.9466ZM135.962 69.6725V70.6725H136.962V69.6725H135.962ZM87.9766 69.6725H86.9766V70.6725H87.9766V69.6725ZM85.4961 93.1164H70.7035V95.1164H85.4961V93.1164ZM71.6444 94.455L104.883 2.09133L103.001 1.41412L69.7626 93.7778L71.6444 94.455ZM103.942 2.75272H120.042V0.752724H103.942V2.75272ZM119.101 2.09133L152.34 94.455L154.221 93.7778L120.983 1.41412L119.101 2.09133ZM153.281 93.1164H138.488V95.1164H153.281V93.1164ZM139.433 93.7898L113.321 18.2032L111.43 18.8562L137.543 94.4429L139.433 93.7898ZM112.375 17.5297H111.654V19.5297H112.375V17.5297ZM110.709 18.2027L84.5511 93.7893L86.4411 94.4434L112.599 18.8567L110.709 18.2027ZM87.9766 58.9466H135.962V56.9466H87.9766V58.9466ZM134.962 57.9466V69.6725H136.962V57.9466H134.962ZM135.962 68.6725H87.9766V70.6725H135.962V68.6725ZM88.9766 69.6725V57.9466H86.9766V69.6725H88.9766ZM159.634 94.1164H158.634V95.1164H159.634V94.1164ZM159.634 1.75272V0.752724H158.634V1.75272H159.634ZM173.569 1.75272H174.569V0.752724H173.569V1.75272ZM173.569 82.1199H172.569V83.1199H173.569V82.1199ZM215.422 82.1199H216.422V81.1199H215.422V82.1199ZM215.422 94.1164V95.1164H216.422V94.1164H215.422ZM160.634 94.1164V1.75272H158.634V94.1164H160.634ZM159.634 2.75272H173.569V0.752724H159.634V2.75272ZM172.569 1.75272V82.1199H174.569V1.75272H172.569ZM173.569 83.1199H215.422V81.1199H173.569V83.1199ZM214.422 82.1199V94.1164H216.422V82.1199H214.422ZM215.422 93.1164H159.634V95.1164H215.422V93.1164ZM224.334 94.1164H223.334V95.1164H224.334V94.1164ZM224.334 1.75272V0.752724H223.334V1.75272H224.334ZM282.242 1.75272H283.242V0.752724H282.242V1.75272ZM282.242 13.7492V14.7492H283.242V13.7492H282.242ZM238.27 13.7492V12.7492H237.27V13.7492H238.27ZM238.27 41.8912H237.27V42.8912H238.27V41.8912ZM279.22 41.8912H280.22V40.8912H279.22V41.8912ZM279.22 53.8426V54.8426H280.22V53.8426H279.22ZM238.27 53.8426V52.8426H237.27V53.8426H238.27ZM238.27 82.1199H237.27V83.1199H238.27V82.1199ZM282.783 82.1199H283.783V81.1199H282.783V82.1199ZM282.783 94.1164V95.1164H283.783V94.1164H282.783ZM225.334 94.1164V1.75272H223.334V94.1164H225.334ZM224.334 2.75272H282.242V0.752724H224.334V2.75272ZM281.242 1.75272V13.7492H283.242V1.75272H281.242ZM282.242 12.7492H238.27V14.7492H282.242V12.7492ZM237.27 13.7492V41.8912H239.27V13.7492H237.27ZM238.27 42.8912H279.22V40.8912H238.27V42.8912ZM278.22 41.8912V53.8426H280.22V41.8912H278.22ZM279.22 52.8426H238.27V54.8426H279.22V52.8426ZM237.27 53.8426V82.1199H239.27V53.8426H237.27ZM238.27 83.1199H282.783V81.1199H238.27V83.1199ZM281.783 82.1199V94.1164H283.783V82.1199H281.783ZM282.783 93.1164H224.334V95.1164H282.783V93.1164ZM344.248 26.0162L343.254 26.1282L343.354 27.0162H344.248V26.0162ZM338.295 16.0943L337.732 16.9209L337.737 16.9242L338.295 16.0943ZM315.294 14.3355L315.684 15.2562L315.693 15.2525L315.294 14.3355ZM308.845 19.2062L308.041 18.6118L308.039 18.6138L308.845 19.2062ZM308.123 31.8791L307.281 32.4191L307.289 32.4302L308.123 31.8791ZM312.227 35.893L311.686 36.7342L311.695 36.7398L311.704 36.7452L312.227 35.893ZM317.729 38.5539L317.383 39.492L317.396 39.4966L317.729 38.5539ZM323.367 40.2676L323.618 39.2998L323.609 39.2975L323.367 40.2676ZM332.387 42.6128L332.135 43.5806L332.142 43.5824L332.149 43.5841L332.387 42.6128ZM350.066 50.415L349.46 51.2107L350.066 50.415ZM356.47 57.9015L355.592 58.3804L355.596 58.3872L356.47 57.9015ZM354.891 82.5258L354.059 81.9711L354.056 81.9754L354.891 82.5258ZM343.21 92.132L342.793 91.2231L342.791 91.224L343.21 92.132ZM306.815 92.3575L307.214 91.4403L306.815 92.3575ZM294.954 83.0219L294.136 83.5974L294.138 83.6003L294.954 83.0219ZM290.219 68.5901V67.5901H289.163L289.22 68.6441L290.219 68.5901ZM304.199 68.5901L305.196 68.5093L305.122 67.5901H304.199V68.5901ZM307.447 76.9335L306.685 77.5817L306.69 77.5873L306.695 77.5927L307.447 76.9335ZM314.798 81.8493L314.456 82.7892L314.467 82.7932L314.798 81.8493ZM335.183 81.5787L335.556 82.5066L335.56 82.5047L335.183 81.5787ZM342.489 76.3472L343.271 76.9706L343.275 76.9655L342.489 76.3472ZM342.805 61.735L342.054 62.3953L342.06 62.4025L342.805 61.735ZM336.536 57.4054L336.135 58.3218L336.139 58.3235L336.536 57.4054ZM327.651 54.3838L327.388 55.3486L327.396 55.3507L327.651 54.3838ZM316.737 51.4072L317 50.4424L317 50.4423L316.737 51.4072ZM299.148 42.5226L298.476 43.2626L298.478 43.2649L299.148 42.5226ZM297.029 13.0727L296.22 12.4845L297.029 13.0727ZM308.755 3.8273L309.161 4.74089L309.166 4.73881L308.755 3.8273ZM341.993 3.7822L341.576 4.691L341.578 4.69198L341.993 3.7822ZM353.358 12.8472L352.546 13.4308L352.548 13.4338L353.358 12.8472ZM357.687 26.0162V27.0162H358.712L358.687 25.992L357.687 26.0162ZM345.241 25.9043C344.728 21.3507 342.59 17.7776 338.853 15.2645L337.737 16.9242C340.975 19.1014 342.805 22.1429 343.254 26.1282L345.241 25.9043ZM338.858 15.2678C335.166 12.7538 330.567 11.5315 325.126 11.5315V13.5315C330.268 13.5315 334.448 14.6844 337.732 16.9209L338.858 15.2678ZM325.126 11.5315C321.234 11.5315 317.815 12.149 314.895 13.4184L315.693 15.2525C318.305 14.1167 321.44 13.5315 325.126 13.5315V11.5315ZM314.904 13.4148C312 14.6455 309.697 16.3712 308.041 18.6118L309.649 19.8006C311.06 17.892 313.055 16.3706 315.684 15.2562L314.904 13.4148ZM308.039 18.6138C306.405 20.8356 305.59 23.3747 305.59 26.1966H307.59C307.59 23.787 308.277 21.6658 309.65 19.7986L308.039 18.6138ZM305.59 26.1966C305.59 28.5517 306.14 30.6401 307.281 32.4191L308.965 31.3392C308.062 29.9312 307.59 28.2312 307.59 26.1966H305.59ZM307.289 32.4302C308.421 34.1454 309.891 35.5803 311.686 36.7342L312.768 35.0518C311.195 34.041 309.93 32.7999 308.958 31.3281L307.289 32.4302ZM311.704 36.7452C313.476 37.8331 315.369 38.7484 317.383 39.492L318.076 37.6158C316.181 36.9161 314.406 36.0575 312.75 35.0408L311.704 36.7452ZM317.396 39.4966C319.377 40.1975 321.286 40.7783 323.124 41.2378L323.609 39.2975C321.839 38.855 319.991 38.2933 318.063 37.6111L317.396 39.4966ZM323.115 41.2355L332.135 43.5806L332.638 41.645L323.618 39.2998L323.115 41.2355ZM332.149 43.5841C335.046 44.2937 338.024 45.2561 341.082 46.4734L341.821 44.6152C338.686 43.367 335.62 42.3751 332.624 41.6415L332.149 43.5841ZM341.082 46.4734C344.094 47.6726 346.886 49.2513 349.46 51.2107L350.671 49.6194C347.953 47.5498 345.002 45.8814 341.821 44.6152L341.082 46.4734ZM349.46 51.2107C351.991 53.1381 354.034 55.5249 355.592 58.3804L357.348 57.4227C355.658 54.325 353.431 51.7208 350.671 49.6194L349.46 51.2107ZM355.596 58.3872C357.15 61.186 357.95 64.574 357.95 68.5901H359.95C359.95 64.3079 359.096 60.5702 357.344 57.4159L355.596 58.3872ZM357.95 68.5901C357.95 73.6392 356.648 78.0885 354.059 81.9711L355.723 83.0805C358.547 78.8452 359.95 74.004 359.95 68.5901H357.95ZM354.056 81.9754C351.499 85.8549 347.762 88.9435 342.793 91.2231L343.628 93.0409C348.882 90.6301 352.932 87.3146 355.726 83.0762L354.056 81.9754ZM342.791 91.224C337.874 93.4937 331.876 94.6497 324.765 94.6497V96.6497C332.085 96.6497 338.385 95.4606 343.63 93.0399L342.791 91.224ZM324.765 94.6497C317.953 94.6497 312.111 93.5685 307.214 91.4403L306.417 93.2746C311.621 95.5362 317.746 96.6497 324.765 96.6497V94.6497ZM307.214 91.4403C302.31 89.3096 298.509 86.3068 295.77 82.4436L294.138 83.6003C297.112 87.7947 301.218 91.0157 306.417 93.2746L307.214 91.4403ZM295.772 82.4464C293.036 78.5591 291.509 73.9346 291.217 68.5361L289.22 68.6441C289.53 74.3701 291.159 79.3668 294.136 83.5974L295.772 82.4464ZM290.219 69.5901H304.199V67.5901H290.219V69.5901ZM303.203 68.6709C303.488 72.1857 304.636 75.1744 306.685 77.5817L308.208 76.2852C306.469 74.2427 305.452 71.6692 305.196 68.5093L303.203 68.6709ZM306.695 77.5927C308.739 79.9247 311.335 81.6542 314.456 82.7891L315.14 80.9095C312.307 79.8796 310.003 78.3319 308.199 76.2742L306.695 77.5927ZM314.467 82.7932C317.593 83.8869 320.998 84.4278 324.675 84.4278V82.4278C321.195 82.4278 318.016 81.9163 315.128 80.9055L314.467 82.7932ZM324.675 84.4278C328.717 84.4278 332.35 83.7951 335.556 82.5066L334.81 80.6509C331.882 81.8277 328.509 82.4278 324.675 82.4278V84.4278ZM335.56 82.5047C338.788 81.1887 341.373 79.351 343.271 76.9706L341.707 75.7238C340.057 77.7932 337.772 79.4432 334.805 80.6527L335.56 82.5047ZM343.275 76.9655C345.194 74.5254 346.15 71.6741 346.15 68.4548H344.15C344.15 71.2487 343.331 73.6591 341.703 75.7289L343.275 76.9655ZM346.15 68.4548C346.15 65.5164 345.304 63.025 343.549 61.0674L342.06 62.4025C343.432 63.9326 344.15 65.9211 344.15 68.4548H346.15ZM343.556 61.0746C341.904 59.1963 339.682 57.6747 336.932 56.4874L336.139 58.3235C338.681 59.4212 340.639 60.786 342.054 62.3953L343.556 61.0746ZM336.936 56.489C334.265 55.3224 331.254 54.2993 327.906 53.4168L327.396 55.3507C330.663 56.212 333.575 57.2034 336.135 58.3218L336.936 56.489ZM327.914 53.419L317 50.4424L316.474 52.372L327.388 55.3485L327.914 53.419ZM317 50.4423C309.709 48.4567 304.001 45.5561 299.818 41.7803L298.478 43.2649C302.955 47.3063 308.972 50.3288 316.474 52.3721L317 50.4423ZM299.821 41.7827C295.754 38.0851 293.699 33.1945 293.699 27.0084H291.699C291.699 33.6907 293.944 39.1429 298.476 43.2626L299.821 41.7827ZM293.699 27.0084C293.699 21.8792 295.086 17.444 297.837 13.6609L296.22 12.4845C293.199 16.6388 291.699 21.4942 291.699 27.0084H293.699ZM297.837 13.6609C300.611 9.84783 304.374 6.8717 309.161 4.74088L308.348 2.91372C303.273 5.17257 299.22 8.36003 296.22 12.4845L297.837 13.6609ZM309.166 4.73881C313.95 2.58011 319.369 1.48994 325.441 1.48994V-0.51006C319.126 -0.51006 313.421 0.62468 308.343 2.9158L309.166 4.73881ZM325.441 1.48994C331.578 1.48994 336.948 2.56652 341.576 4.69099L342.41 2.87341C337.476 0.608196 331.812 -0.51006 325.441 -0.51006V1.48994ZM341.578 4.69198C346.249 6.82308 349.893 9.7396 352.546 13.4308L354.17 12.2635C351.291 8.25781 347.358 5.131 342.408 2.87242L341.578 4.69198ZM352.548 13.4338C355.189 17.0795 356.572 21.2707 356.688 26.0405L358.687 25.992C358.562 20.8399 357.059 16.2518 354.168 12.2605L352.548 13.4338ZM357.687 25.0162H344.248V27.0162H357.687V25.0162Z" fill="#FAFAFA" mask="url(#path-1-outside-1_65_717)"/>
</svg>
